<?xml version="1.0" encoding="utf-8"?><svg width="144" height="96" viewBox="0 0 144 96" xmlns="http://www.w3.org/2000/svg" xmlns:xlink="http://www.w3.org/1999/xlink"><svg width="48" height="48" fill="none" viewBox="0 0 48 48" id="Create_UEN" xmlns="http://www.w3.org/2000/svg"><rect opacity=".7" x="10" width="36" height="44" rx="4" fill="#FFC700"/><rect opacity=".7" x="2" y="4" width="36" height="44" rx="4" fill="#2F8DFA"/><path fill-rule="evenodd" clip-rule="evenodd" d="M29.5 9.5a1.5 1.5 0 00-3 0v3h-3a1.5 1.5 0 000 3h3v3a1.5 1.5 0 003 0v-3h3a1.5 1.5 0 000-3h-3v-3z" fill="#fff"/><path d="M10.546 32.131c.317 0 .6-.051.847-.154.252-.107.464-.259.637-.455s.303-.434.392-.714c.093-.285.14-.607.14-.966v-6.041h2.366v6.041c0 .625-.103 1.2-.308 1.722-.2.523-.49.973-.868 1.351a3.932 3.932 0 01-1.38.882c-.54.21-1.15.315-1.826.315-.682 0-1.293-.105-1.834-.315a3.933 3.933 0 01-1.38-.882 3.822 3.822 0 01-.867-1.351 4.766 4.766 0 01-.301-1.722v-6.041H8.53v6.034c0 .36.044.681.133.966.093.28.226.52.399.721.172.196.382.348.63.455.252.103.537.154.854.154zM19.156 25.621v2.38h3.206v1.75h-3.206v2.429h4.186V34h-6.566V23.801h6.566v1.82h-4.186zM33.706 23.801V34h-1.233c-.181 0-.335-.028-.462-.084a1.185 1.185 0 01-.364-.308l-4.808-6.083c.018.182.03.36.035.532.009.168.014.327.014.476V34H24.8V23.801h1.247c.102 0 .189.005.259.014.07.01.133.028.189.056.056.023.11.058.16.105.052.047.11.11.175.189l4.852 6.125a8.538 8.538 0 01-.064-1.092v-5.397h2.087z" fill="#fff"/></svg><svg width="48" height="48" fill="none" viewBox="0 0 48 48" id="Create_new" x="48" xmlns="http://www.w3.org/2000/svg"><rect opacity=".7" x="10" width="36" height="44" rx="4" fill="#FFC700"/><rect opacity=".7" x="2" y="4" width="36" height="44" rx="4" fill="#D5001A"/><path fill-rule="evenodd" clip-rule="evenodd" d="M23 17a3 3 0 10-6 0v6h-6a3 3 0 100 6h6v6a3 3 0 106 0v-6h6a3 3 0 100-6h-6v-6z" fill="#fff"/></svg><svg width="48" height="48" fill="none" viewBox="0 0 48 48" id="Entity360" y="48" xmlns="http://www.w3.org/2000/svg"><rect opacity=".7" x="4" y="4" width="44" height="32" rx="4" fill="#FFC700"/><rect opacity=".7" y="12" width="44" height="32" rx="4" fill="#D5001A"/><path d="M34 20h-7v2h7v-2zm0 4h-7v2h7v-2zm0 4h-7v2h7v-2zm-4 9.193V38h-2v-.984c0-1.329.085-1.713-1.208-2.013-2.479-.572-4.822-1.112-5.714-3.067-.333-.728-.556-1.921.266-3.473 1.646-3.109 2.075-5.746 1.179-7.235C21.879 20.159 20.667 20 20 20c-.672 0-1.896.163-2.546 1.254-.9 1.511-.464 4.132 1.194 7.191.839 1.547.622 2.744.292 3.476-.887 1.966-3.318 2.526-5.67 3.068-1.348.309-1.27.675-1.27 2.011v1h-1.996L10 37.167c-.009-2.224.088-3.495 2.647-4.086 2.805-.647 5.573-1.227 4.242-3.682C12.946 22.124 15.766 18 20 18c4.154 0 7.042 3.971 3.111 11.398-1.292 2.44 1.375 3.02 4.242 3.682 2.569.594 2.657 1.873 2.647 4.113z" fill="#fff"/></svg><svg width="48" height="48" fill="none" viewBox="0 0 48 48" id="Extract_Info" x="48" y="48" xmlns="http://www.w3.org/2000/svg"><rect opacity=".7" x="45" y="8" width="30" height="40" rx="4" transform="rotate(90 45 8)" fill="#FFC700"/><path opacity=".7" fill-rule="evenodd" clip-rule="evenodd" d="M23 10a4 4 0 00-4-4H4a4 4 0 00-4 4v30a4 4 0 004 4h32a4 4 0 004-4V16a4 4 0 00-4-4H23v-2z" fill="#02AFBA"/><path fill-rule="evenodd" clip-rule="evenodd" d="M19.976 16.926a2.532 2.532 0 012.532 2.532v9.664l2.17-2.17a2.532 2.532 0 113.58 3.58l-6.492 6.492a2.525 2.525 0 01-1.92.739 2.525 2.525 0 01-1.92-.739l-6.492-6.492a2.532 2.532 0 013.58-3.58l2.43 2.43v-9.924a2.532 2.532 0 012.532-2.532z" fill="#fff"/></svg><svg width="48" height="48" fill="none" viewBox="0 0 48 48" id="Manage_API" x="96" xmlns="http://www.w3.org/2000/svg"><path opacity=".7" d="M26.5 6c-7.177 0-13.02 5.758-13.4 13.002-4.604.849-8.1 4.961-8.1 9.915C5 34.484 9.413 39 14.854 39h23.292C43.587 39 48 34.484 48 28.917c0-4.954-3.495-9.066-8.1-9.915C39.52 11.759 33.677 6 26.5 6z" fill="#FFC700"/><path opacity=".7" d="M21.5 10c-7.177 0-13.02 5.758-13.4 13.002-4.604.849-8.1 4.961-8.1 9.915C0 38.484 4.413 43 9.854 43h23.292C38.587 43 43 38.484 43 32.917c0-4.954-3.495-9.066-8.1-9.915C34.52 15.759 28.677 10 21.5 10z" fill="#02AFBA"/><path d="M29.876 33.452h-12.68v2.25l-4.424-4.5h17.104v2.25zM12.772 26.25h12.68V24l4.424 4.501H12.772v-2.25z" fill="#fff"/></svg><svg width="48" height="48" fill="none" viewBox="0 0 48 48" id="Manage_products" x="96" y="48" xmlns="http://www.w3.org/2000/svg"><rect opacity=".7" x="46" y="34" width="14" height="44" rx="4" transform="rotate(90 46 34)" fill="#FFC700"/><rect opacity=".7" x="42" y="5" width="39" height="36" rx="4" transform="rotate(90 42 5)" fill="#02AFBA"/><path d="M36 25.616v-3.232l-2.869-1.02a9.445 9.445 0 00-.811-1.955l1.308-2.751-2.285-2.285-2.751 1.307a9.468 9.468 0 00-1.955-.811L25.616 12h-3.232l-1.021 2.869a9.413 9.413 0 00-1.955.811l-2.751-1.308-2.285 2.285 1.308 2.752a9.39 9.39 0 00-.811 1.955L12 22.384v3.232l2.869 1.02a9.39 9.39 0 00.811 1.955l-1.308 2.751 2.285 2.286 2.751-1.308a9.468 9.468 0 001.955.811L22.384 36h3.232l1.021-2.869a9.445 9.445 0 001.955-.811l2.751 1.308 2.285-2.286-1.308-2.751a9.445 9.445 0 00.811-1.955L36 25.616zM24 28a4 4 0 110-8 4 4 0 010 8z" fill="#fff"/></svg></svg>