<?xml version="1.0" standalone="no"?>
<!DOCTYPE svg PUBLIC "-//W3C//DTD SVG 1.1//EN" "http://www.w3.org/Graphics/SVG/1.1/DTD/svg11.dtd" >
<svg xmlns="http://www.w3.org/2000/svg">
<defs>
  <font id="system-icon" horiz-adv-x="300">
    <font-face font-family="system-icon"
      units-per-em="300" ascent="300"
      descent="0" />
    <missing-glyph horiz-adv-x="0" />
    <glyph glyph-name="action-add_to_bookmark"
      unicode="&#xF101;"
      horiz-adv-x="300" d="M212.5 262.5H87.5C73.75 262.5 62.5 251.25 62.5 237.5V37.5L150 75L237.5 37.5V237.5C237.5 251.25 226.2500000000001 262.5 212.5 262.5zM212.5 75L150 102.25L87.5 75V237.5H212.5V75z" />
    <glyph glyph-name="action-add_to_cart"
      unicode="&#xF102;"
      horiz-adv-x="300" d="M137.5 187.5H162.5V225H200V250H162.5V287.5H137.5V250H100V225H137.5V187.5zM87.5 75C73.75 75 62.625 63.75 62.625 50C62.625 36.25 73.75 25 87.5 25C101.25 25 112.5 36.25 112.5 50C112.5 63.75 101.25 75 87.5 75zM212.5 75C198.75 75 187.625 63.75 187.625 50C187.625 36.25 198.75 25 212.5 25C226.2500000000001 25 237.5 36.25 237.5 50C237.5 63.75 226.2500000000001 75 212.5 75zM101.25 137.5H194.375C203.75 137.5 212 142.625 216.25 150.375L264.5 238L242.7500000000001 250L194.375 162.5H106.625L53.375 275H12.5V250H37.5L82.5 155.125L65.625 124.625C56.5 107.875 68.5 87.5 87.5 87.5H237.5V112.5H87.5L101.25 137.5z" />
    <glyph glyph-name="action-add_to_favourites"
      unicode="&#xF103;"
      horiz-adv-x="300" d="M150 210.875L162.125 182.25L168 168.375L183 167.125L213.875 164.5L190.375 144.125L179 134.25L182.375 119.5L189.375 89.375L162.875 105.375L150 113.375L137.125 105.625L110.625 89.625L117.625 119.75L121 134.5L109.625 144.375L86.125 164.75L117 167.375L132 168.625L137.875 182.5L150 210.875zM150 275L114.875 192.125L25 184.5L93.25 125.375L72.75 37.5L150 84.125L227.25 37.5L206.75 125.375L275 184.5L185.125 192.125L150 275z" />
    <glyph glyph-name="action-add"
      unicode="&#xF104;"
      horiz-adv-x="300" d="M237.5 137.5H162.5V62.5H137.5V137.5H62.5V162.5H137.5V237.5H162.5V162.5H237.5V137.5z" />
    <glyph glyph-name="action-added_to_bookmark"
      unicode="&#xF105;"
      horiz-adv-x="300" d="M212.5 262.5H87.5C73.75 262.5 62.5 251.25 62.5 237.5V37.5L150 75L237.5 37.5V237.5C237.5 251.25 226.2500000000001 262.5 212.5 262.5z" />
    <glyph glyph-name="action-attach"
      unicode="&#xF106;"
      horiz-adv-x="300" d="M231.25 100H87.5C59.875 100 37.5 122.375 37.5 150C37.5 177.625 59.875 200 87.5 200H243.75C261 200 275 186 275 168.75C275 151.5 261 137.5 243.75 137.5H112.5C105.625 137.5 100 143.125 100 150C100 156.875 105.625 162.5 112.5 162.5H231.25V181.25H112.5C95.25 181.25 81.25 167.25 81.25 150C81.25 132.75 95.25 118.75 112.5 118.75H243.75C271.375 118.75 293.75 141.125 293.75 168.75C293.75 196.375 271.375 218.75 243.75 218.75H87.5C49.5 218.75 18.75 188 18.75 150C18.75 112 49.5 81.25 87.5 81.25H231.25V100z" />
    <glyph glyph-name="action-bookmarks"
      unicode="&#xF107;"
      horiz-adv-x="300" d="M187.5 212.5V50.375L134.875 73L125 77.25L115.125 73L62.5 50.375V212.5H187.5zM237.5 287.5H112.375C98.625 287.5 87.5 276.25 87.5 262.5H212.5C226.2500000000001 262.5 237.5 251.25 237.5 237.5V75L262.5 62.5V262.5C262.5 276.25 251.2500000000001 287.5 237.5 287.5zM187.5 237.5H62.5C48.75 237.5 37.5 226.25 37.5 212.5V12.5L125 50L212.5 12.5V212.5C212.5 226.25 201.25 237.5 187.5 237.5z" />
    <glyph glyph-name="action-cart"
      unicode="&#xF108;"
      horiz-adv-x="300" d="M194.375 137.5C203.75 137.5 212 142.625 216.25 150.375L261 231.5C265.625 239.75 259.625 250 250.1250000000001 250H65.125L53.375 275H12.5V250H37.5L82.5 155.125L65.625 124.625C56.5 107.875 68.5 87.5 87.5 87.5H237.5V112.5H87.5L101.25 137.5H194.375zM77 225H228.875L194.375 162.5H106.625L77 225zM87.5 75C73.75 75 62.625 63.75 62.625 50C62.625 36.25 73.75 25 87.5 25C101.25 25 112.5 36.25 112.5 50C112.5 63.75 101.25 75 87.5 75zM212.5 75C198.75 75 187.625 63.75 187.625 50C187.625 36.25 198.75 25 212.5 25C226.2500000000001 25 237.5 36.25 237.5 50C237.5 63.75 226.2500000000001 75 212.5 75z" />
    <glyph glyph-name="action-clear"
      unicode="&#xF109;"
      horiz-adv-x="300" d="M182.375 200L150 167.625L117.625 200L100 182.375L132.375 150L100 117.625L117.625 100L150 132.375L182.375 100L200 117.625L167.625 150L200 182.375L182.375 200zM150 275C80.875 275 25 219.125 25 150C25 80.875 80.875 25 150 25C219.125 25 275 80.875 275 150C275 219.125 219.125 275 150 275zM150 50C94.875 50 50 94.875 50 150C50 205.125 94.875 250 150 250C205.125 250 250 205.125 250 150C250 94.875 205.125 50 150 50z" />
    <glyph glyph-name="action-close"
      unicode="&#xF10A;"
      horiz-adv-x="300" d="M237.5 219.875L219.875 237.5L150 167.625L80.125 237.5L62.5 219.875L132.375 150L62.5 80.125L80.125 62.5L150 132.375L219.875 62.5L237.5 80.125L167.625 150L237.5 219.875z" />
    <glyph glyph-name="action-delete_forever"
      unicode="&#xF10B;"
      horiz-adv-x="300" d="M176.5 169.125L150 142.625L123.375 169.125L105.75 151.5L132.375 125L105.875 98.5L123.5 80.875L150 107.375L176.5 80.875L194.125 98.5L167.625 125L194.125 151.5L176.5 169.125zM193.75 250L181.25 262.5H118.75L106.25 250H62.5V225H237.5V250H193.75zM75 62.5C75 48.75 86.25 37.5 100 37.5H200C213.75 37.5 225 48.75 225 62.5V212.5H75V62.5zM100 187.5H200V62.5H100V187.5z" />
    <glyph glyph-name="action-delete_sweep"
      unicode="&#xF10C;"
      horiz-adv-x="300" d="M187.5 100H237.5V75H187.5V100zM187.5 200H275V175H187.5V200zM187.5 150H262.5V125H187.5V150zM37.5 75C37.5 61.25 48.75 50 62.5 50H137.5C151.25 50 162.5 61.25 162.5 75V200H37.5V75zM62.5 175H137.5V75H62.5V175zM125 250H75L62.5 237.5H25V212.5H175V237.5H137.5L125 250z" />
    <glyph glyph-name="action-delete"
      unicode="&#xF10D;"
      horiz-adv-x="300" d="M200 187.5V62.5H100V187.5H200zM181.25 262.5H118.75L106.25 250H62.5V225H237.5V250H193.75L181.25 262.5zM225 212.5H75V62.5C75 48.75 86.25 37.5 100 37.5H200C213.75 37.5 225 48.75 225 62.5V212.5z" />
    <glyph glyph-name="action-download_complete"
      unicode="&#xF10E;"
      horiz-adv-x="300" d="M62.5 75H237.5V50H62.5V75zM120 108.75L62.5 166.25L87.5 190L120 157.5L212.5 250L237.5 225L120 108.75z" />
    <glyph glyph-name="action-download"
      unicode="&#xF10F;"
      horiz-adv-x="300" d="M237.5 187.5H187.5V262.5H112.5V187.5H62.5L150 100L237.5 187.5zM137.5 162.5V237.5H162.5V162.5H177.125L150 135.375L122.875 162.5H137.5zM62.5 75H237.5V50H62.5V75z" />
    <glyph glyph-name="action-edit"
      unicode="&#xF110;"
      horiz-adv-x="300" d="M37.5 84.375V37.5H84.375L222.625 175.75L175.75 222.625L37.5 84.375zM74 62.5H62.5V74L175.75 187.25L187.25 175.75L74 62.5zM258.875 229.625L229.625 258.875C227.1250000000001 261.375 224 262.5 220.75 262.5C217.5 262.5 214.375 261.25 212 258.875L189.125 236L236 189.125L258.875 212C263.75 216.875 263.75 224.75 258.875 229.625z" />
    <glyph glyph-name="action-enter"
      unicode="&#xF111;"
      horiz-adv-x="300" d="M137.5 187.5L155.25 169.75L110.375 125H225V250H250V100H110.375L155.25 55.25L137.5 37.5L62.5 112.5L137.5 187.5z" />
    <glyph glyph-name="action-favourited"
      unicode="&#xF112;"
      horiz-adv-x="300" d="M150 84.125L227.25 37.5L206.75 125.375L275 184.5L185.125 192.125L150 275L114.875 192.125L25 184.5L93.25 125.375L72.75 37.5L150 84.125z" />
    <glyph glyph-name="action-filter"
      unicode="&#xF113;"
      horiz-adv-x="300" d="M87.50075 225H212.50125L149.87625 146.25L87.50075 225zM53.12575 229.875C78.37575 197.5 125.00125 137.5 125.00125 137.5V62.5C125.00125 55.625 130.62625 50 137.50125 50H162.50125C169.37625 50 175.00125 55.625 175.00125 62.5V137.5C175.00125 137.5 221.50125 197.5 246.7512500000001 229.875C253.12625 238.125 247.25125 250 236.87625 250H63.00075C52.62575 250 46.75075 238.125 53.12575 229.875z" />
    <glyph glyph-name="action-hide"
      unicode="&#xF114;"
      horiz-adv-x="300" d="M150 224.999875C197.375 224.999875 239.6250000000001 198.374875 260.25 156.25C252.875 141 242.5 127.875 230.125 117.25L247.75 99.625C265.125 115 278.875 134.25 287.5 156.25C265.875 211.124875 212.5 249.999875 150 249.999875C134.125 249.999875 118.875 247.499875 104.5 242.874875L125.125 222.249875C133.25 223.874875 141.5 224.999875 150 224.999875zM136.625 210.749875L162.5 184.874875C169.625 181.749875 175.375 175.999875 178.5 168.875L204.375 143C205.375 147.25 206.125 151.75 206.125 156.375C206.25 187.374875 181 212.499875 150 212.499875C145.375 212.499875 141 211.874875 136.625 210.749875zM25.125 251.624875L58.625 218.124875C38.25 202.124875 22.125 180.874875 12.5 156.25C34.125 101.375 87.5 62.5 150 62.5C169 62.5 187.25 66.125 204 72.75L246.75 30L264.375 47.625L42.75 269.374875L25.125 251.624875zM118.875 157.875L151.5 125.25C151 125.125 150.5 125 150 125C132.75 125 118.75 139 118.75 156.25C118.75 156.875 118.875 157.25 118.875 157.875zM76.375 200.374875L98.25 178.499875C95.375 171.625 93.75 164.125 93.75 156.25C93.75 125.25 119 100 150 100C157.875 100 165.375 101.625 172.125 104.5L184.375 92.25C173.375 89.25 161.875 87.5 150 87.5C102.625 87.5 60.375 114.125 39.75 156.25C48.5 174.125 61.25 188.874875 76.375 200.374875z" />
    <glyph glyph-name="action-maximise"
      unicode="&#xF115;"
      horiz-adv-x="300" d="M37.5 262.5H262.5V237.5H37.5V262.5z" />
    <glyph glyph-name="action-minimise"
      unicode="&#xF116;"
      horiz-adv-x="300" d="M75 62.5H225V37.5H75V62.5z" />
    <glyph glyph-name="action-more_horizontal"
      unicode="&#xF117;"
      horiz-adv-x="300" d="M75 175C61.25 175 50 163.75 50 150C50 136.25 61.25 125 75 125C88.75 125 100 136.25 100 150C100 163.75 88.75 175 75 175zM225 175C211.25 175 200 163.75 200 150C200 136.25 211.25 125 225 125C238.7500000000001 125 250 136.25 250 150C250 163.75 238.7500000000001 175 225 175zM150 175C136.25 175 125 163.75 125 150C125 136.25 136.25 125 150 125C163.75 125 175 136.25 175 150C175 163.75 163.75 175 150 175z" />
    <glyph glyph-name="action-more_vertical"
      unicode="&#xF118;"
      horiz-adv-x="300" d="M150 200C163.75 200 175 211.25 175 225C175 238.75 163.75 250 150 250C136.25 250 125 238.75 125 225C125 211.25 136.25 200 150 200zM150 175C136.25 175 125 163.75 125 150C125 136.25 136.25 125 150 125C163.75 125 175 136.25 175 150C175 163.75 163.75 175 150 175zM150 100C136.25 100 125 88.75 125 75C125 61.25 136.25 50 150 50C163.75 50 175 61.25 175 75C175 88.75 163.75 100 150 100z" />
    <glyph glyph-name="action-open_in_full"
      unicode="&#xF119;"
      horiz-adv-x="300" d="M262.5 162.5V262.5H162.5L203.625 221.375L78.625 96.375L37.5 137.5V37.5H137.5L96.375 78.625L221.375 203.625L262.5 162.5z" />
    <glyph glyph-name="action-open_in_new_tab"
      unicode="&#xF11A;"
      horiz-adv-x="300" d="M237.5 62.5H62.5V237.5H150V262.5H62.5C48.625 262.5 37.5 251.25 37.5 237.5V62.5C37.5 48.75 48.625 37.5 62.5 37.5H237.5C251.2500000000001 37.5 262.5 48.75 262.5 62.5V150H237.5V62.5zM175 262.5V237.5H219.875L97 114.625L114.625 97L237.5 219.875V175H262.5V262.5H175z" />
    <glyph glyph-name="action-redo"
      unicode="&#xF11B;"
      horiz-adv-x="300" d="M230 167.5C206.875 187.625 176.875 200 143.75 200C85.6255 200 36.5005 162.125 19.2505 109.75L48.7505 100C61.8755 139.875 99.3755 168.75 143.75 168.75C168.125 168.75 190.375 159.75 207.75 145.25L162.5 100H275V212.5L230 167.5z" />
    <glyph glyph-name="action-refresh"
      unicode="&#xF11C;"
      horiz-adv-x="300" d="M237.5 200L187.5 150H225C225 108.625 191.375 75 150 75C137.375 75 125.375 78.125 115 83.75L96.75 65.5C112.125 55.75 130.375 50 150 50C205.25 50 250 94.75 250 150H287.5L237.5 200zM75 150C75 191.375 108.625 225 150 225C162.625 225 174.625 221.875 185 216.25L203.25 234.5C187.875 244.25 169.625 250 150 250C94.75 250 50 205.25 50 150H12.5L62.5 100L112.5 150H75z" />
    <glyph glyph-name="action-save"
      unicode="&#xF11D;"
      horiz-adv-x="300" d="M212.5 262.5H62.5C48.625 262.5 37.5 251.25 37.5 237.5V62.5C37.5 48.75 48.625 37.5 62.5 37.5H237.5C251.2500000000001 37.5 262.5 48.75 262.5 62.5V212.5L212.5 262.5zM237.5 62.5H62.5V237.5H202.125L237.5 202.125V62.5zM150 150C129.25 150 112.5 133.25 112.5 112.5C112.5 91.75 129.25 75 150 75C170.75 75 187.5 91.75 187.5 112.5C187.5 133.25 170.75 150 150 150zM75 225H187.5V175H75V225z" />
    <glyph glyph-name="action-search"
      unicode="&#xF11E;"
      horiz-adv-x="300" d="M193.75 125H183.875L180.375 128.375C192.625 142.625 200 161.125 200 181.25C200 226.125 163.625 262.5 118.75 262.5C73.875 262.5 37.5 226.125 37.5 181.25C37.5 136.375 73.875 100 118.75 100C138.875 100 157.375 107.375 171.625 119.625L175 116.125V106.25L237.5 43.875L256.125 62.5L193.75 125zM118.75 125C87.625 125 62.5 150.125 62.5 181.25C62.5 212.375 87.625 237.5 118.75 237.5C149.875 237.5 175 212.375 175 181.25C175 150.125 149.875 125 118.75 125z" />
    <glyph glyph-name="action-share"
      unicode="&#xF11F;"
      horiz-adv-x="300" d="M225 99C215.5 99 207 95.25 200.5 89.375L111.375 141.25C112 144.125 112.5 147 112.5 150C112.5 153 112 155.875 111.375 158.75L199.5 210.125C206.25 203.875 215.125 200 225 200C245.75 200 262.5 216.75 262.5 237.5C262.5 258.25 245.75 275 225 275C204.25 275 187.5 258.25 187.5 237.5C187.5 234.5 188 231.625 188.625 228.75L100.5 177.375C93.75 183.625 84.875 187.5 75 187.5C54.25 187.5 37.5 170.75 37.5 150C37.5 129.25 54.25 112.5 75 112.5C84.875 112.5 93.75 116.375 100.5 122.625L189.5 70.625C188.875 68 188.5 65.25 188.5 62.5C188.5 42.375 204.875 26 225 26C245.125 26 261.5 42.375 261.5 62.5C261.5 82.625 245.125 99 225 99zM225 250C231.875 250 237.5 244.375 237.5 237.5C237.5 230.625 231.875 225 225 225C218.125 225 212.5 230.625 212.5 237.5C212.5 244.375 218.125 250 225 250zM75 137.5C68.125 137.5 62.5 143.125 62.5 150C62.5 156.875 68.125 162.5 75 162.5C81.875 162.5 87.5 156.875 87.5 150C87.5 143.125 81.875 137.5 75 137.5zM225 49.75C218.125 49.75 212.5 55.375 212.5 62.25C212.5 69.125 218.125 74.75 225 74.75C231.875 74.75 237.5 69.125 237.5 62.25C237.5 55.375 231.875 49.75 225 49.75z" />
    <glyph glyph-name="action-show"
      unicode="&#xF120;"
      horiz-adv-x="300" d="M150 225C197.375 225 239.6250000000001 198.375 260.25 156.25C239.6250000000001 114.125 197.375 87.5 150 87.5C102.625 87.5 60.375 114.125 39.75 156.25C60.375 198.375 102.625 225 150 225zM150 250C87.5 250 34.125 211.125 12.5 156.25C34.125 101.375 87.5 62.5 150 62.5C212.5 62.5 265.875 101.375 287.5 156.25C265.875 211.125 212.5 250 150 250zM150 187.5C167.25 187.5 181.25 173.5 181.25 156.25C181.25 139 167.25 125 150 125C132.75 125 118.75 139 118.75 156.25C118.75 173.5 132.75 187.5 150 187.5zM150 212.5C119 212.5 93.75 187.25 93.75 156.25C93.75 125.25 119 100 150 100C181 100 206.25 125.25 206.25 156.25C206.25 187.25 181 212.5 150 212.5z" />
    <glyph glyph-name="action-sort_by_alpha"
      unicode="&#xF121;"
      horiz-adv-x="300" d="M186.75 241.75L157.25 271.25L127.75 241.75H186.75zM129.875 78.375H152.875L96.74975 221.625H76.24975L19.99975 78.375H42.99975L54.49975 109H118.37475L129.875 78.375zM62.12475 129.5L86.37475 194.25L110.62475 129.5H62.12475zM157.25 28.75L186.375 57.875H128.125L157.25 28.75zM270.75 205.75V221.5H167V201.5H240.5L166.5 94.5V78.375H273.125V98.25H196.625L270.75 205.75z" />
    <glyph glyph-name="action-sort_up_down"
      unicode="&#xF122;"
      horiz-adv-x="300" d="M62.5 212.625H100V125H125V212.625H162.5L112.5 262.5L62.5 212.625zM175 175V87.375H137.5L187.5 37.5L237.5 87.375H200V175H175z" />
    <glyph glyph-name="action-sort_updown"
      unicode="&#xF123;"
      horiz-adv-x="300" d="M237.5 175L150 262.5L62.5 175L237.5 175zM237.5 125L62.5 125L150 37.5L237.5 125z" />
    <glyph glyph-name="action-sort"
      unicode="&#xF124;"
      horiz-adv-x="300" d="M37.5 75H112.5V100H37.5V75zM37.5 225V200H262.5V225H37.5zM37.5 137.5H187.5V162.5H37.5V137.5z" />
    <glyph glyph-name="action-swap"
      unicode="&#xF125;"
      horiz-adv-x="300" d="M200 87.375V175H175V87.375H137.5L187.5 37.5L237.5 87.375H200zM112.5 262.5L62.5 212.625H100V125H125V212.625H162.5L112.5 262.5zM200 87.375V175H175V87.375H137.5L187.5 37.5L237.5 87.375H200zM112.5 262.5L62.5 212.625H100V125H125V212.625H162.5L112.5 262.5z" />
    <glyph glyph-name="action-undo"
      unicode="&#xF126;"
      horiz-adv-x="300" d="M156.25 200C123.125 200 93.125 187.625 70 167.5L25 212.5V100H137.5L92.25 145.25C109.625 159.75 131.75 168.75 156.25 168.75C200.5 168.75 238.125 139.875 251.2500000000001 100L280.875 109.75C263.5 162.125 214.375 200 156.25 200z" />
    <glyph glyph-name="action-upload"
      unicode="&#xF127;"
      horiz-adv-x="300" d="M112.5 100H187.5V175H237.5L150 262.5L62.5 175H112.5V100zM150 227.125L177.125 200H162.5V125H137.5V200H122.875L150 227.125zM62.5 75H237.5V50H62.5V75z" />
    <glyph glyph-name="business_local_company"
      unicode="&#xF128;"
      horiz-adv-x="300" d="M150 275C101.625 275 62.5 235.875 62.5 187.5C62.5 121.875 150 25 150 25C150 25 237.5 121.875 237.5 187.5C237.5 235.875 198.375 275 150 275zM87.5 187.5C87.5 222 115.5 250 150 250C184.5 250 212.5 222 212.5 187.5C212.5 151.5 176.5 97.625 150 64C124 97.375 87.5 151.875 87.5 187.5zM150 156.25C167.25875 156.25 181.25 170.24125 181.25 187.5C181.25 204.758875 167.25875 218.75 150 218.75C132.74125 218.75 118.75 204.758875 118.75 187.5C118.75 170.24125 132.74125 156.25 150 156.25z" />
    <glyph glyph-name="business-approved_liquidator"
      unicode="&#xF129;"
      horiz-adv-x="300" d="M150 275C81 275 25 219 25 150C25 81 81 25 150 25C219 25 275 81 275 150C275 219 219 275 150 275zM150 50C94.875 50 50 94.875 50 150C50 205.125 94.875 250 150 250C205.125 250 250 205.125 250 150C250 94.875 205.125 50 150 50zM153.875 160.75C131.75 166.375 124.625 172.5 124.625 181.625C124.625 192.125 134.5 199.5 150.875 199.5C168.125 199.5 174.625 191.25 175.125 179H196.5C195.875 195.75 185.625 211.125 165.375 216.125V237.5H136.25V216.375C117.375 212.375 102.25 200.125 102.25 181.25C102.25 158.875 120.875 147.625 148 141.125C172.375 135.375 177.25 126.75 177.25 117.75C177.25 111.125 172.375 100.375 151 100.375C131 100.375 123.125 109.375 122 120.875H100.5C101.75 99.625 117.5 87.625 136.25 83.75V62.5H165.5V83.375C184.5 87 199.5 97.875 199.625 118C199.5 145.5 175.875 155 153.875 160.75z" />
    <glyph glyph-name="business-business"
      unicode="&#xF12A;"
      horiz-adv-x="300" d="M250 212.5H200V237.5L175 262.5H125L100 237.5V212.5H50C36.25 212.5 25 201.25 25 187.5V125C25 115.625 30 107.75 37.5 103.375V62.5C37.5 48.625 48.625 37.5 62.5 37.5H237.5C251.375 37.5 262.5 48.625 262.5 62.5V103.5C269.875 107.875 275 115.875 275 125V187.5C275 201.25 263.75 212.5 250 212.5zM125 237.5H175V212.5H125V237.5zM50 187.5H250V125H187.5V162.5H112.5V125H50V187.5zM162.5 112.5H137.5V137.5H162.5V112.5zM237.5 62.5H62.5V100H112.5V87.5H187.5V100H237.5V62.5z" />
    <glyph glyph-name="business-foreign_company"
      unicode="&#xF12B;"
      horiz-adv-x="300" d="M275 100V125L168.75 187.5V256.25C168.75 266.625 160.375 275 150 275C139.625 275 131.25 266.625 131.25 256.25V187.5L25 125V100L131.25 131.25V62.5L100 43.75V25L150 37.5L200 25V43.75L168.75 62.5V131.25L275 100z" />
    <glyph glyph-name="business-group_of_companies"
      unicode="&#xF12C;"
      horiz-adv-x="300" d="M50 137.5C63.75 137.5 75 148.75 75 162.5C75 176.25 63.75 187.5 50 187.5C36.25 187.5 25 176.25 25 162.5C25 148.75 36.25 137.5 50 137.5zM64.125 123.75C59.5 124.5 54.875 125 50 125C37.625 125 25.875 122.375 15.25 117.75C6 113.75 0 104.75 0 94.625V75H56.25V95.125C56.25 105.5 59.125 115.25 64.125 123.75zM250 137.5C263.75 137.5 275 148.75 275 162.5C275 176.25 263.75 187.5 250 187.5C236.25 187.5 225 176.25 225 162.5C225 148.75 236.25 137.5 250 137.5zM300 94.625C300 104.75 294 113.75 284.75 117.75C274.125 122.375 262.375 125 250 125C245.125 125 240.5 124.5 235.875 123.75C240.875 115.25 243.75 105.5 243.75 95.125V75H300V94.625zM203 129.375C188.375 135.875 170.375 140.625 150 140.625C129.625 140.625 111.625 135.75 97 129.375C83.5 123.375 75 109.875 75 95.125V75H225V95.125C225 109.875 216.5 123.375 203 129.375zM100.875 100C102 102.875 102.5 104.875 112.25 108.625C124.375 113.375 137.125 115.625 150 115.625C162.875 115.625 175.625 113.375 187.75 108.625C197.375 104.875 197.875 102.875 199.125 100H100.875zM150 200C156.875 200 162.5 194.375 162.5 187.5C162.5 180.625 156.875 175 150 175C143.125 175 137.5 180.625 137.5 187.5C137.5 194.375 143.125 200 150 200zM150 225C129.25 225 112.5 208.25 112.5 187.5C112.5 166.75 129.25 150 150 150C170.75 150 187.5 166.75 187.5 187.5C187.5 208.25 170.75 225 150 225z" />
    <glyph glyph-name="business-limited_liability_partnership"
      unicode="&#xF12D;"
      horiz-adv-x="300" d="M212.5 250L262.5 200L212.5 150V187.5H162.5V212.5H212.5V250zM125 212.5C118.125 212.5 112.5 206.875 112.5 200C112.5 193.125 118.125 187.5 125 187.5C131.875 187.5 137.5 193.125 137.5 200C137.5 206.875 131.875 212.5 125 212.5zM75 212.5C68.125 212.5 62.5 206.875 62.5 200C62.5 193.125 68.125 187.5 75 187.5C81.875 187.5 87.5 193.125 87.5 200C87.5 206.875 81.875 212.5 75 212.5zM87.5 87.5H137.5V112.5H87.5V150L37.5 100L87.5 50V87.5zM175 87.5C181.875 87.5 187.5 93.125 187.5 100C187.5 106.875 181.875 112.5 175 112.5C168.125 112.5 162.5 106.875 162.5 100C162.5 93.125 168.125 87.5 175 87.5zM225 87.5C231.875 87.5 237.5 93.125 237.5 100C237.5 106.875 231.875 112.5 225 112.5C218.125 112.5 212.5 106.875 212.5 100C212.5 93.125 218.125 87.5 225 87.5z" />
    <glyph glyph-name="business-limited_partnership"
      unicode="&#xF12E;"
      horiz-adv-x="300" d="M112.5 128.125C83.25 128.125 25 113.5 25 84.375V62.5H200V84.375C200 113.5 141.75 128.125 112.5 128.125zM54.25 87.5C64.75 94.75 90.125 103.125 112.5 103.125C134.875 103.125 160.25 94.75 170.75 87.5H54.25zM112.5 150C136.625 150 156.25 169.625 156.25 193.75C156.25 217.875 136.625 237.5 112.5 237.5C88.375 237.5 68.75 217.875 68.75 193.75C68.75 169.625 88.375 150 112.5 150zM112.5 212.5C122.875 212.5 131.25 204.125 131.25 193.75C131.25 183.375 122.875 175 112.5 175C102.125 175 93.75 183.375 93.75 193.75C93.75 204.125 102.125 212.5 112.5 212.5zM200.5 127.375C215 116.875 225 102.875 225 84.375V62.5H275V84.375C275 109.625 231.25 124 200.5 127.375zM187.5 150C211.625 150 231.25 169.625 231.25 193.75C231.25 217.875 211.625 237.5 187.5 237.5C180.75 237.5 174.5 235.875 168.75 233.125C176.625 222 181.25 208.375 181.25 193.75C181.25 179.125 176.625 165.5 168.75 154.375C174.5 151.625 180.75 150 187.5 150z" />
    <glyph glyph-name="business-public_accounting_firm"
      unicode="&#xF12F;"
      horiz-adv-x="300" d="M212.5 162.5V262.5H87.5V212.5H37.5V37.5H137.5V87.5H162.5V37.5H262.5V162.5H212.5zM87.5 62.5H62.5V87.5H87.5V62.5zM87.5 112.5H62.5V137.5H87.5V112.5zM87.5 162.5H62.5V187.5H87.5V162.5zM137.5 112.5H112.5V137.5H137.5V112.5zM137.5 162.5H112.5V187.5H137.5V162.5zM137.5 212.5H112.5V237.5H137.5V212.5zM187.5 112.5H162.5V137.5H187.5V112.5zM187.5 162.5H162.5V187.5H187.5V162.5zM187.5 212.5H162.5V237.5H187.5V212.5zM237.5 62.5H212.5V87.5H237.5V62.5zM237.5 112.5H212.5V137.5H237.5V112.5z" />
    <glyph glyph-name="business-public_accounting"
      unicode="&#xF130;"
      horiz-adv-x="300" d="M175 275H75C61.25 275 50 263.75 50 250V50C50 36.25 61.25 25 75 25H225C238.7500000000001 25 250 36.25 250 50V200L175 275zM75 50V250H162.5V200H225V50H75zM137.5 62.5H162.5V75H175C181.875 75 187.5 80.625 187.5 87.5V125C187.5 131.875 181.875 137.5 175 137.5H137.5V150H187.5V175H162.5V187.5H137.5V175H125C118.125 175 112.5 169.375 112.5 162.5V125C112.5 118.125 118.125 112.5 125 112.5H162.5V100H112.5V75H137.5V62.5z" />
    <glyph glyph-name="document-document"
      unicode="&#xF131;"
      horiz-adv-x="300" d="M177.125 237.5L237.5 177.125V62.5H62.5V237.5H177.125zM177.125 262.5H62.5C48.75 262.5 37.5 251.25 37.5 237.5V62.5C37.5 48.75 48.75 37.5 62.5 37.5H237.5C251.2500000000001 37.5 262.5 48.75 262.5 62.5V177.125C262.5 183.75 259.875 190.125 255.125 194.75L194.75 255.125C190.125 259.875 183.75 262.5 177.125 262.5zM87.5 112.5H212.5V87.5H87.5V112.5zM87.5 162.5H212.5V137.5H87.5V162.5zM87.5 212.5H175V187.5H87.5V212.5z" />
    <glyph glyph-name="document-folder"
      unicode="&#xF132;"
      horiz-adv-x="300" d="M250 225H150L125 250H50C36.25 250 25.125 238.75 25.125 225L25 75C25 61.25 36.25 50 50 50H250C263.75 50 275 61.25 275 75V200C275 213.75 263.75 225 250 225zM250 75H50V200H250V75z" />
    <glyph glyph-name="document-image"
      unicode="&#xF133;"
      horiz-adv-x="300" d="M237.5 237.5V62.5H62.5V237.5H237.5zM237.5 262.5H62.5C48.75 262.5 37.5 251.25 37.5 237.5V62.5C37.5 48.75 48.75 37.5 62.5 37.5H237.5C251.2500000000001 37.5 262.5 48.75 262.5 62.5V237.5C262.5 251.25 251.2500000000001 262.5 237.5 262.5zM176.75 151.75L139.25 103.375L112.5 135.75L75 87.5H225L176.75 151.75z" />
    <glyph glyph-name="document-media"
      unicode="&#xF134;"
      horiz-adv-x="300" d="M25 225H0V162.5H0.125L0 50C0 36.25 11.25 25 25 25H250V50H25V225zM87.5 112.5H262.5L218.75 168.75L187.5 131.125L143.75 187.5L87.5 112.5zM275 250H175L150 275H75C61.25 275 50.125 263.75 50.125 250L50 100C50 86.25 61.25 75 75 75H275C288.75 75 300 86.25 300 100V225C300 238.75 288.75 250 275 250zM275 100H75V250H139.625L157.25 232.375L164.625 225H275V100z" />
    <glyph glyph-name="document-pdf"
      unicode="&#xF135;"
      horiz-adv-x="300" d="M250 275H100C86.25 275 75 263.75 75 250V100C75 86.25 86.25 75 100 75H250C263.75 75 275 86.25 275 100V250C275 263.75 263.75 275 250 275zM250 100H100V250H250V100zM50 225H25V50C25 36.25 36.25 25 50 25H225V50H50V225zM200 150V187.5C200 194.375 194.375 200 187.5 200H162.5V137.5H187.5C194.375 137.5 200 143.125 200 150zM175 187.5H187.5V150H175V187.5zM225 162.5H237.5V175H225V187.5H237.5V200H212.5V137.5H225V162.5zM125 162.5H137.5C144.375 162.5 150 168.125 150 175V187.5C150 194.375 144.375 200 137.5 200H112.5V137.5H125V162.5zM125 187.5H137.5V175H125V187.5z" />
    <glyph glyph-name="document-print"
      unicode="&#xF136;"
      horiz-adv-x="300" d="M237.5 200H225V262.5H75V200H62.5C41.75 200 25 183.25 25 162.5V87.5H75V37.5H225V87.5H275V162.5C275 183.25 258.25 200 237.5 200zM100 237.5H200V200H100V237.5zM200 87.5V62.5H100V112.5H200V87.5zM225 112.5V137.5H75V112.5H50V162.5C50 169.375 55.625 175 62.5 175H237.5C244.375 175 250 169.375 250 162.5V112.5H225z" />
    <glyph glyph-name="document-quote"
      unicode="&#xF137;"
      horiz-adv-x="300" d="M175 275H75C61.25 275 50 263.75 50 250V50C50 36.25 61.25 25 75 25H225C238.7500000000001 25 250 36.25 250 50V200L175 275zM75 50V250H162.5V200H225V50H75zM137.5 62.5H162.5V75H175C181.875 75 187.5 80.625 187.5 87.5V125C187.5 131.875 181.875 137.5 175 137.5H137.5V150H187.5V175H162.5V187.5H137.5V175H125C118.125 175 112.5 169.375 112.5 162.5V125C112.5 118.125 118.125 112.5 125 112.5H162.5V100H112.5V75H137.5V62.5z" />
    <glyph glyph-name="general-account"
      unicode="&#xF138;"
      horiz-adv-x="300" d="M150 275C81 275 25 219 25 150C25 81 81 25 150 25C219 25 275 81 275 150C275 219 219 275 150 275zM88.375 71.5C93.75 82.75 126.5 93.75 150 93.75C173.5 93.75 206.375 82.75 211.625 71.5C194.625 58 173.25 50 150 50C126.75 50 105.375 58 88.375 71.5zM229.5 89.625C211.625 111.375 168.25 118.75 150 118.75C131.75 118.75 88.375 111.375 70.5 89.625C57.75 106.375 50 127.25 50 150C50 205.125 94.875 250 150 250C205.125 250 250 205.125 250 150C250 127.25 242.25 106.375 229.5 89.625zM150 225C125.75 225 106.25 205.5 106.25 181.25C106.25 157 125.75 137.5 150 137.5C174.25 137.5 193.75 157 193.75 181.25C193.75 205.5 174.25 225 150 225zM150 162.5C139.625 162.5 131.25 170.875 131.25 181.25C131.25 191.625 139.625 200 150 200C160.375 200 168.75 191.625 168.75 181.25C168.75 170.875 160.375 162.5 150 162.5z" />
    <glyph glyph-name="general-action"
      unicode="&#xF139;"
      horiz-adv-x="300" d="M175 225V250H125V225H175zM50 200V62.5H250V200H50zM250 225C263.875 225 275 213.875 275 200V62.5C275 48.625 263.875 37.5 250 37.5H50C36.125 37.5 25 48.625 25 62.5L25.125 200C25.125 213.875 36.125 225 50 225H100V250C100 263.875 111.125 275 125 275H175C188.875 275 200 263.875 200 250V225H250z" />
    <glyph glyph-name="general-bar_chart"
      unicode="&#xF13A;"
      horiz-adv-x="300" d="M112.5 87.5H87.5V175H112.5V87.5zM162.5 87.5H137.5V212.5H162.5V87.5zM212.5 87.5H187.5V137.5H212.5V87.5zM237.5 62.5H62.5V237.5H237.5V62.5zM237.5 262.5H62.5C48.75 262.5 37.5 251.25 37.5 237.5V62.5C37.5 48.75 48.75 37.5 62.5 37.5H237.5C251.2500000000001 37.5 262.5 48.75 262.5 62.5V237.5C262.5 251.25 251.2500000000001 262.5 237.5 262.5z" />
    <glyph glyph-name="general-calendar"
      unicode="&#xF13B;"
      horiz-adv-x="300" d="M250 262.5H237.5V287.5H212.5V262.5H87.5V287.5H62.5V262.5H50C36.25 262.5 25 251.25 25 237.5V37.5C25 23.75 36.25 12.5 50 12.5H250C263.75 12.5 275 23.75 275 37.5V237.5C275 251.25 263.75 262.5 250 262.5zM250 37.5H50V175H250V37.5zM250 200H50V237.5H250V200z" />
    <glyph glyph-name="general-check"
      unicode="&#xF13C;"
      horiz-adv-x="300" d="M112.498875 97.875L60.373875 150L42.623875 132.375L112.498875 62.5L262.4987500000001 212.5L244.87375 230.125L112.498875 97.875z" />
    <glyph glyph-name="general-credit_card"
      unicode="&#xF13D;"
      horiz-adv-x="300" d="M250 250H50C36.125 250 25.125 238.875 25.125 225L25 75C25 61.125 36.125 50 50 50H250C263.875 50 275 61.125 275 75V225C275 238.875 263.875 250 250 250zM250 75H50V150H250V75zM250 200H50V225H250V200z" />
    <glyph glyph-name="general-directions"
      unicode="&#xF13E;"
      horiz-adv-x="300" d="M280.37375 167.625L167.74875 280.2501250000001C158.37375 289.6251375 141.87375 289.7501375 132.37375 280.2501250000001L19.8735 167.75C10.1235375 158 10.1235375 142.25 19.8735 132.5L132.37375 20C137.24875 15.125 143.62375 12.75 149.99875 12.75C156.37375 12.75 162.74875 15.125 167.62375 20L279.99875 132.375C289.8737500000001 141.875 289.99875 157.625 280.37375 167.625zM150.12375 37.625L37.6235 150.125L150.12375 262.6251250000001L262.62375 150.125L150.12375 37.625zM99.9985 162.5V112.5H124.9985V150H174.99875V118.75L218.74875 162.5L174.99875 206.250125V175.000125H112.4985C105.6235 175.000125 99.9985 169.375 99.9985 162.5z" />
    <glyph glyph-name="general-empty"
      unicode="&#xF13F;"
      horiz-adv-x="300" d="M137.5 275H162.5V237.5H137.5V275zM194.7925 237.564125L221.31125 264.082625L238.98875 246.405L212.47 219.8865L194.7925 237.564125zM275 118.77C275 125.4 272.3662500000001 131.75875 267.6775 136.4475L211.4475 192.677625C206.75875 197.366125 200.4 200 193.77 200H106.230375C99.599875 200 93.241125 197.366125 88.552625 192.677625L32.322375 136.4475C27.633875 131.75875 25 125.4 25 118.77V62.5C25 48.6925 36.192875 37.5 50 37.5H250C263.8075 37.5 275 48.6925 275 62.5V118.77zM106.25 175H193.875L231.3750000000001 137.5H186L182.375 131.25C175.5 119.5 163.5 112.5 150.125 112.5C136.75 112.5 124.75 119.5 117.875 131.25L114.25 137.5H68.75L106.25 175zM50 62.5V112.5H100.25C112 96.875 130.5 87.5 150 87.5C169.5 87.5 188 96.875 199.75 112.5H250V62.5H50zM60.943625 246.391625L78.62125 264.069375L105.13775 237.552875L87.460125 219.875125L60.943625 246.391625z" />
    <glyph glyph-name="general-help"
      unicode="&#xF140;"
      horiz-adv-x="300" d="M137.5 75H162.5V100H137.5V75zM150 275C81 275 25 219 25 150C25 81 81 25 150 25C219 25 275 81 275 150C275 219 219 275 150 275zM150 50C94.875 50 50 94.875 50 150C50 205.125 94.875 250 150 250C205.125 250 250 205.125 250 150C250 94.875 205.125 50 150 50zM150 225C122.375 225 100 202.625 100 175H125C125 188.75 136.25 200 150 200C163.75 200 175 188.75 175 175C175 150 137.5 153.125 137.5 112.5H162.5C162.5 140.625 200 143.75 200 175C200 202.625 177.625 225 150 225z" />
    <glyph glyph-name="general-history"
      unicode="&#xF141;"
      horiz-adv-x="300" d="M162.5 262.5C100.375 262.5 50 212.125 50 150H12.5L62.5 100.125L112.5 150H75C75 198.375 114.125 237.5 162.5 237.5C210.875 237.5 250 198.375 250 150C250 101.625 210.875 62.5 162.5 62.5C138.375 62.5 116.5 72.375 100.75 88.25L83 70.5C103.375 50.125 131.375 37.5 162.5 37.5C224.625 37.5 275 87.875 275 150C275 212.125 224.625 262.5 162.5 262.5zM150 200V137.5L203.125 106L212.75 122L168.75 148.125V200H150z" />
    <glyph glyph-name="general-home"
      unicode="&#xF142;"
      horiz-adv-x="300" d="M150 228.875L212.5 172.625V75H187.5V150H112.5V75H87.5V172.625L150 228.875zM150 262.5L25 150H62.5V50H137.5V125H162.5V50H237.5V150H275L150 262.5z" />
    <glyph glyph-name="general-info"
      unicode="&#xF143;"
      horiz-adv-x="300" d="M137.5 212.5H162.5V187.5H137.5V212.5zM137.5 162.5H162.5V87.5H137.5V162.5zM150 275C81 275 25 219 25 150C25 81 81 25 150 25C219 25 275 81 275 150C275 219 219 275 150 275zM150 50C94.875 50 50 94.875 50 150C50 205.125 94.875 250 150 250C205.125 250 250 205.125 250 150C250 94.875 205.125 50 150 50z" />
    <glyph glyph-name="general-light_bulb"
      unicode="&#xF144;"
      horiz-adv-x="300" d="M112.50025 25H187.5V50H112.50025V25zM131.75 273.125C97.37525 266.125 70.00025 238 63.87525 203.375C57.50025 167.25 73.37525 134.375 100.00025 115.75V75H200V115.75C222.625 131.625 237.5 157.75 237.5 187.5C237.5 241.75 187.875 284.625 131.75 273.125zM185.625 136.25L175 128.75V100H125V128.75L114.37525 136.25C97.50025 148 87.50025 167.125 87.50025 187.5C87.50025 222 115.50025 250 150 250C184.5 250 212.5 222 212.5 187.5C212.5 167.125 202.5 148 185.625 136.25z" />
    <glyph glyph-name="general-loading"
      unicode="&#xF145;"
      horiz-adv-x="300" d="M75 275L75.125 200L125 150L75.125 99.875L75 25H225V100L175 150L225 199.875V275H75zM200 93.75V50H100V93.75L150 143.75L200 93.75z" />
    <glyph glyph-name="general-location"
      unicode="&#xF146;"
      horiz-adv-x="300" d="M150 275C101.625 275 62.5 235.875 62.5 187.5C62.5 121.875 150 25 150 25C150 25 237.5 121.875 237.5 187.5C237.5 235.875 198.375 275 150 275zM87.5 187.5C87.5 222 115.5 250 150 250C184.5 250 212.5 222 212.5 187.5C212.5 151.5 176.5 97.625 150 64C124 97.375 87.5 151.875 87.5 187.5zM150 156.25C167.25875 156.25 181.25 170.24125 181.25 187.5C181.25 204.758875 167.25875 218.75 150 218.75C132.74125 218.75 118.75 204.758875 118.75 187.5C118.75 170.24125 132.74125 156.25 150 156.25z" />
    <glyph glyph-name="general-lock"
      unicode="&#xF147;"
      horiz-adv-x="300" d="M225 200H212.5V225C212.5 259.5 184.5 287.5 150 287.5C115.5 287.5 87.5 259.5 87.5 225V200H75C61.25 200 50 188.75 50 175V50C50 36.25 61.25 25 75 25H225C238.7500000000001 25 250 36.25 250 50V175C250 188.75 238.7500000000001 200 225 200zM112.5 225C112.5 245.75 129.25 262.5 150 262.5C170.75 262.5 187.5 245.75 187.5 225V200H112.5V225zM225 50H75V175H225V50zM150 87.5C163.75 87.5 175 98.75 175 112.5C175 126.25 163.75 137.5 150 137.5C136.25 137.5 125 126.25 125 112.5C125 98.75 136.25 87.5 150 87.5z" />
    <glyph glyph-name="general-login"
      unicode="&#xF148;"
      horiz-adv-x="300" d="M137.5 212.5L120 195L152.5 162.5H25V137.5H152.5L120 105L137.5 87.5L200 150L137.5 212.5zM250 62.5H150V37.5H250C263.75 37.5 275 48.75 275 62.5V237.5C275 251.25 263.75 262.5 250 262.5H150V237.5H250V62.5z" />
    <glyph glyph-name="general-mail"
      unicode="&#xF149;"
      horiz-adv-x="300" d="M275 225C275 238.75 263.75 250 250 250H50C36.25 250 25 238.75 25 225V75C25 61.25 36.25 50 50 50H250C263.75 50 275 61.25 275 75V225zM250 225L150 162.5L50 225H250zM250 75H50V200L150 137.5L250 200V75z" />
    <glyph glyph-name="general-map"
      unicode="&#xF14A;"
      horiz-adv-x="300" d="M256.25 262.5L254.25 262.125L187.5 236.25L112.5 262.5L42 238.75C39.375 237.875 37.5 235.625 37.5 232.75V43.75C37.5 40.25 40.25 37.5 43.75 37.5L45.75 37.875L112.5 63.75L187.5 37.5L258 61.25C260.625 62.125 262.5 64.375 262.5 67.25V256.25C262.5 259.75 259.75 262.5 256.25 262.5zM125 231.625L175 214.125V68.375L125 85.875V231.625zM62.5 219.25L100 231.875V85.625L62.5 71.125V219.25zM237.5 80.75L200 68.125V214.25L237.5 228.75V80.75z" />
    <glyph glyph-name="general-media"
      unicode="&#xF14B;"
      horiz-adv-x="300" d="M90.625 143.75L59.375 187.5H43.75V112.5H59.375V156.25L91.25 112.5H106.25V187.5H90.625V143.75zM118.75 112.5H168.75V128.125H137.5V142H168.75V157.75H137.5V171.75H168.75V187.5H118.75V112.5zM240.625 187.5V131.25H226.625V175.125H211V131.125H196.875V187.5H181.25V125C181.25 118.125 186.875 112.5 193.75 112.5H243.75C250.625 112.5 256.25 118.125 256.25 125V187.5H240.625z" />
    <glyph glyph-name="general-message"
      unicode="&#xF14C;"
      horiz-adv-x="300" d="M50 250H250V100H64.625L50 85.375V250zM50 275C36.25 275 25.125 263.75 25.125 250L25 25L75 75H250C263.75 75 275 86.25 275 100V250C275 263.75 263.75 275 250 275H50zM75 150H225V125H75V150zM75 187.5H225V162.5H75V187.5zM75 225H225V200H75V225z" />
    <glyph glyph-name="general-microsoft_dynamics"
      unicode="&#xF14D;"
      horiz-adv-x="300" d="M72.985875 25L121.689 164.78125L72.985875 196.71875V25zM227.0175 111.45375V190.8125L72.985875 25L227.0175 111.45375zM72.985875 275V208.015625L173.50125 158.71875L220.22 196.71875L72.985875 275z" />
    <glyph glyph-name="general-money"
      unicode="&#xF14E;"
      horiz-adv-x="300" d="M147.50125 163.75C119.125875 171.125 110.000875 178.75 110.000875 190.625C110.000875 204.25 122.625875 213.75 143.75125 213.75C166.00125 213.75 174.25125 203.125 175.00125 187.5H202.62625C201.75125 209 188.62625 228.75 162.50125 235.125V262.5H125.00125V235.5C100.750875 230.25 81.250875 214.5 81.250875 190.375C81.250875 161.5 105.125875 147.125 140.00125 138.75C171.25125 131.25 177.50125 120.25 177.50125 108.625C177.50125 100 171.37625 86.25 143.75125 86.25C118.000875 86.25 107.875875 97.75 106.500875 112.5H79.000875C80.500875 85.125 101.000875 69.75 125.00125 64.625V37.5H162.50125V64.375C186.87625 69 206.25125 83.125 206.25125 108.75C206.25125 144.25 175.87625 156.375 147.50125 163.75z" />
    <glyph glyph-name="general-notification"
      unicode="&#xF14F;"
      horiz-adv-x="300" d="M150 25C163.75 25 175 36.25 175 50H125C125 36.25 136.25 25 150 25zM225 100V162.5C225 200.875 204.625 233 168.75 241.5V250C168.75 260.375 160.375 268.75 150 268.75C139.625 268.75 131.25 260.375 131.25 250V241.5C95.5 233 75 201 75 162.5V100L50 75V62.5H250V75L225 100zM200 87.5H100V162.5C100 193.5 118.875 218.75 150 218.75C181.125 218.75 200 193.5 200 162.5V87.5z" />
    <glyph glyph-name="general-phone"
      unicode="&#xF150;"
      horiz-adv-x="300" d="M81.75 237.5C82.5 226.375 84.375 215.5 87.375 205.125L72.375 190.125C67.25 205.125 64 221 62.875 237.5H81.75zM205 87.25C215.625 84.25 226.5 82.375 237.5 81.625V63C221 64.125 205.125 67.375 190 72.375L205 87.25zM93.75 262.5H50C43.125 262.5 37.5 256.875 37.5 250C37.5 132.625 132.625 37.5 250 37.5C256.875 37.5 262.5 43.125 262.5 50V93.625C262.5 100.5 256.875 106.125 250 106.125C234.5000000000001 106.125 219.375 108.625 205.375 113.25C204.125 113.75 202.75 113.875 201.5 113.875C198.25 113.875 195.125 112.625 192.625 110.25L165.125 82.75C129.75 100.875 100.75 129.75 82.75 165.125L110.25 192.625C113.75 196.125 114.75 201 113.375 205.375C108.75 219.375 106.25 234.375 106.25 250C106.25 256.875 100.625 262.5 93.75 262.5z" />
    <glyph glyph-name="general-pie_chart"
      unicode="&#xF151;"
      horiz-adv-x="300" d="M150 275C81 275 25 219 25 150C25 81 81 25 150 25C219 25 275 81 275 150C275 219 219 275 150 275zM249.125 162.5H162.5V249.125C207.625 243.5 243.5 207.625 249.125 162.5zM50 150C50 200.875 88.25 243 137.5 249.125V50.875C88.25 57 50 99.125 50 150zM162.5 50.875V137.5H249.125C243.5 92.375 207.625 56.5 162.5 50.875z" />
    <glyph glyph-name="general-plane"
      unicode="&#xF152;"
      horiz-adv-x="300" d="M275 100V125L168.75 187.5V256.25C168.75 266.625 160.375 275 150 275C139.625 275 131.25 266.625 131.25 256.25V187.5L25 125V100L131.25 131.25V62.5L100 43.75V25L150 37.5L200 25V43.75L168.75 62.5V131.25L275 100z" />
    <glyph glyph-name="general-restricted"
      unicode="&#xF153;"
      horiz-adv-x="300" d="M150 275C81 275 25 219 25 150C25 81 81 25 150 25C219 25 275 81 275 150C275 219 219 275 150 275zM150 50C94.75 50 50 94.75 50 150C50 173.125 57.875 194.375 71.125 211.25L211.25 71.125C194.375 57.875 173.125 50 150 50zM228.875 88.75L88.75 228.875C105.625 242.125 126.875 250 150 250C205.25 250 250 205.25 250 150C250 126.875 242.125 105.625 228.875 88.75z" />
    <glyph glyph-name="general-settings"
      unicode="&#xF154;"
      horiz-adv-x="300" d="M242.87625 137.75C243.37625 141.75 243.75125 145.75 243.75125 150C243.75125 154.25 243.37625 158.25 242.87625 162.25L269.25125 182.875C271.6262500000001 184.75 272.2512500000001 188.125 270.7512500000001 190.875L245.75125 234.125C244.62625 236.125 242.50125 237.25 240.25125 237.25C239.50125 237.25 238.7512500000001 237.125 238.12625 236.875L207.00125 224.375C200.50125 229.375 193.50125 233.5 185.87625 236.625L181.12625 269.75C180.75125 272.75 178.12625 275 175.00125 275H125.00125C121.876 275 119.251 272.75 118.876 269.75L114.126 236.625C106.501 233.5 99.501 229.25 93.001 224.375L61.876 236.875C61.126 237.125 60.376 237.25 59.626 237.25C57.501 237.25 55.376 236.125 54.251 234.125L29.251 190.875C27.626 188.125 28.376 184.75 30.751 182.875L57.126 162.25C56.626 158.25 56.251 154.125 56.251 150C56.251 145.875 56.626 141.75 57.126 137.75L30.751 117.125C28.376 115.25 27.751 111.875 29.251 109.125L54.251 65.875C55.376 63.875 57.501 62.75 59.751 62.75C60.501 62.75 61.251 62.875 61.876 63.125L93.001 75.625C99.501 70.625 106.501 66.5 114.126 63.375L118.876 30.25C119.251 27.25 121.876 25 125.00125 25H175.00125C178.12625 25 180.75125 27.25 181.12625 30.25L185.87625 63.375C193.50125 66.5 200.50125 70.75 207.00125 75.625L238.12625 63.125C238.87625 62.875 239.6262500000001 62.75 240.37625 62.75C242.50125 62.75 244.62625 63.875 245.75125 65.875L270.7512500000001 109.125C272.2512500000001 111.875 271.6262500000001 115.25 269.25125 117.125L242.87625 137.75zM218.12625 159.125C218.62625 155.25 218.75125 152.625 218.75125 150C218.75125 147.375 218.50125 144.625 218.12625 140.875L216.37625 126.75L227.50125 118L241.00125 107.5L232.2512500000001 92.375L216.37625 98.75L203.37625 104L192.12625 95.5C186.75125 91.5 181.62625 88.5 176.50125 86.375L163.25125 81L161.25125 66.875L158.75125 50H141.25125L138.87625 66.875L136.87625 81L123.626 86.375C118.251 88.625 113.251 91.5 108.251 95.25L96.876 104L83.626 98.625L67.751 92.25L59.001 107.375L72.501 117.875L83.626 126.625L81.876 140.75C81.501 144.625 81.251 147.5 81.251 150C81.251 152.5 81.501 155.375 81.876 159.125L83.626 173.25L72.501 182L59.001 192.5L67.751 207.625L83.626 201.25L96.626 196L107.876 204.5C113.251 208.5 118.376 211.5 123.501 213.625L136.75125 219L138.75125 233.125L141.25125 250H158.62625L161.00125 233.125L163.00125 219L176.25125 213.625C181.62625 211.375 186.62625 208.5 191.62625 204.75L203.00125 196L216.25125 201.375L232.12625 207.75L240.87625 192.625L227.50125 182L216.37625 173.25L218.12625 159.125zM150.00125 200C122.376 200 100.001 177.625 100.001 150C100.001 122.375 122.376 100 150.00125 100C177.62625 100 200.00125 122.375 200.00125 150C200.00125 177.625 177.62625 200 150.00125 200zM150.00125 125C136.25125 125 125.00125 136.25 125.00125 150C125.00125 163.75 136.25125 175 150.00125 175C163.75125 175 175.00125 163.75 175.00125 150C175.00125 136.25 163.75125 125 150.00125 125z" />
    <glyph glyph-name="general-thumbs_up"
      unicode="&#xF155;"
      horiz-adv-x="300" d="M112.5 37.5H225C235.375 37.5 244.25 43.75 248 52.75L285.75 140.875C286.875 143.75 287.5 146.75 287.5 150V175C287.5 188.75 276.25 200 262.5 200H183.625L195.5 257.125L195.875 261.125C195.875 266.25 193.75 271 190.375 274.375L177.125 287.5L94.75 205.125C90.25 200.625 87.5 194.375 87.5 187.5V62.5C87.5 48.75 98.75 37.5 112.5 37.5zM112.5 187.5L166.75 241.75L150 175H262.5V150L225 62.5H112.5V187.5zM12.5 187.5H62.5V37.5H12.5V187.5z" />
    <glyph glyph-name="general-timer"
      unicode="&#xF156;"
      horiz-adv-x="300" d="M188.37625 287.374875H113.375875V262.374875H188.37625V287.374875zM138.37625 124.875H163.37625V199.874875H138.37625V124.875zM238.7512500000001 207.624875L256.50125 225.374875C251.12625 231.749875 245.25125 237.749875 238.87625 242.999875L221.12625 225.249875C201.75125 240.749875 177.37625 249.999875 150.87625 249.999875C88.750875 249.999875 38.375875 199.624875 38.375875 137.5C38.375875 75.375 88.625875 25 150.87625 25C213.12625 25 263.3762500000001 75.375 263.3762500000001 137.5C263.3762500000001 163.875 254.1262500000001 188.249875 238.7512500000001 207.624875zM150.87625 49.875C102.500875 49.875 63.375875 89 63.375875 137.375C63.375875 185.749875 102.500875 224.874875 150.87625 224.874875C199.25125 224.874875 238.37625 185.749875 238.37625 137.375C238.37625 89 199.25125 49.875 150.87625 49.875z" />
    <glyph glyph-name="general-update"
      unicode="&#xF157;"
      horiz-adv-x="300" d="M137.5 200V137.5L190.625 106L200.25 122L156.25 148.125V200H137.5zM262.5 175V262.5L229.5 229.5C209.25 249.875 181.125 262.5 150 262.5C87.875 262.5 37.5 212.125 37.5 150C37.5 87.875 87.875 37.5 150 37.5C212.125 37.5 262.5 87.875 262.5 150H237.5C237.5 101.75 198.25 62.5 150 62.5C101.75 62.5 62.5 101.75 62.5 150C62.5 198.25 101.75 237.5 150 237.5C174.125 237.5 196 227.625 211.875 211.875L175 175H262.5z" />
    <glyph glyph-name="general-verified_badge"
      unicode="&#xF158;"
      horiz-adv-x="300" d="M287.5 150.125L257 185L261.25 231.125L216.125 241.375L192.5 281.25L150 263L107.5 281.25L83.875 241.375L38.75 231.25L43 185L12.5 150.125L43 115.25L38.75 69L83.875 58.75L107.5 18.75L150 37.125L192.5 18.875L216.125 58.75L261.25 69L257 115.125L287.5 150.125zM238.125 131.625L231.125 123.5L232.125 112.875L234.375 88.5L210.625 83.125L200.125 80.75L194.625 71.5L182.25 50.5L160 60.125L150 64.375L140.125 60.125L117.875 50.5L105.5 71.375L100 80.625L89.5 83L65.75 88.375L68 112.875L69 123.5L62 131.625L45.875 150L62 168.5L69 176.625L67.875 187.375L65.625 211.625L89.375 217L99.875 219.375L105.375 228.625L117.75 249.625L140 240L150 235.75L159.875 240L182.125 249.625L194.5 228.625L200 219.375L210.5 217L234.25 211.625L232 187.25L231 176.625L238 168.5L254.125 150.125L238.125 131.625zM126.125 128.125L97.1255 157.25L78.6255 138.625L126.125 91L217.875 183.000125L199.375 201.625L126.125 128.125z" />
    <glyph glyph-name="general-verified_shield"
      unicode="&#xF159;"
      horiz-adv-x="300" d="M150 287.5L37.5 237.5V162.5C37.5 93.125 85.5 28.25 150 12.5C214.5 28.25 262.5 93.125 262.5 162.5V237.5L150 287.5zM237.5 162.5C237.5 106 200.25 53.875 150 38.375C99.75 53.875 62.5 106 62.5 162.5V221.25L150 260.125L237.5 221.25V162.5zM92.625 155.125L75 137.5L125 87.5L225 187.5L207.375 205.25L125 122.875L92.625 155.125z" />
    <glyph glyph-name="general-walk"
      unicode="&#xF15A;"
      horiz-adv-x="300" d="M168.75 231.25C182.5 231.25 193.75 242.5 193.75 256.25C193.75 270 182.5 281.25 168.75 281.25C155 281.25 143.75 270 143.75 256.25C143.75 242.5 155 231.25 168.75 231.25zM122.5 188.75L87.5 12.5H113.75L136.25 112.5L162.5 87.5V12.5H187.5V106.25L161.25 131.25L168.75 168.75C185 150 210 137.5 237.5 137.5V162.5C213.75 162.5 193.75 175 183.75 192.5L171.25 212.5C164.25 223.625 150.25 228.125 138.125 223L75 196.25V137.5H100V180L122.5 188.75z" />
    <glyph glyph-name="industries-biotech"
      unicode="&#xF15B;"
      horiz-adv-x="300" d="M87.5 62.5C73.75 62.5 62.5 51.25 62.5 37.5H237.5C237.5 51.25 226.2500000000001 62.5 212.5 62.5H162.5V87.5H200C213.75 87.5 225 98.75 225 112.5H125C104.25 112.5 87.5 129.25 87.5 150C87.5 163.625 94.875 175.5 105.875 182.125C111 174.75 119.125 169.625 128.75 168.875C137.5 168.125 145.75 171.25 151.875 176.625L159.25 156.5L171 160.75L175.25 149L198.75 157.5L194.5 169.25L206.25 173.5L172 267.5L160.25 263.25L156 275L132.5 266.5L136.75 254.75L125 250.375L132 231C117.375 231.5 104.625 221.625 101 207.75C78.375 198.25 62.5 176 62.5 150C62.5 115.5 90.5 87.5 125 87.5V62.5H87.5zM160.75 243.5L182.125 184.75L170.375 180.5L149 239.25L160.75 243.5zM131.25 212.5C138.125 212.5 143.75 206.875 143.75 200C143.75 193.125 138.125 187.5 131.25 187.5C124.375 187.5 118.75 193.125 118.75 200C118.75 206.875 124.375 212.5 131.25 212.5z" />
    <glyph glyph-name="industries-fnb"
      unicode="&#xF15C;"
      horiz-adv-x="300" d="M12.5 25.25C12.5 18.25 18.125 12.625 25.125 12.625H187.5C194.5 12.625 200.125 18.25 200.125 25.25V37.5H12.5V25.25zM106.25 187.625C59.375 187.625 12.5 162.5 12.5 112.5H200C200 162.5 153.125 187.625 106.25 187.625zM45.25 137.5C59.125 156.875 88.625 162.625 106.25 162.625C123.875 162.625 153.375 156.875 167.25 137.5H45.25zM12.5 87.5H200V62.5H12.5V87.5zM225 237.5V287.5H200V237.5H137.5L140.375 212.5H259.875L242.375 37.5H225V12.5H246.5C257 12.5 265.625 20.625 266.875 30.875L287.5 237.5H225z" />
    <glyph glyph-name="industries-hotel"
      unicode="&#xF15D;"
      horiz-adv-x="300" d="M87.5 125C108.25 125 125 141.75 125 162.5C125 183.25 108.25 200 87.5 200C66.75 200 50 183.25 50 162.5C50 141.75 66.75 125 87.5 125zM87.5 175C94.375 175 100 169.375 100 162.5C100 155.625 94.375 150 87.5 150C80.625 150 75 155.625 75 162.5C75 169.375 80.625 175 87.5 175zM237.5 212.5H137.5V112.5H37.5V237.5H12.5V50H37.5V87.5H262.5V50H287.5V162.5C287.5 190.125 265.125 212.5 237.5 212.5zM262.5 112.5H162.5V187.5H237.5C251.2500000000001 187.5 262.5 176.25 262.5 162.5V112.5z" />
    <glyph glyph-name="navigation-arrow_back"
      unicode="&#xF15E;"
      horiz-adv-x="300" d="M250 162.5H97.875L167.75 232.375L150 250L50 150L150 50L167.625 67.625L97.875 137.5H250V162.5z" />
    <glyph glyph-name="navigation-arrow_down"
      unicode="&#xF15F;"
      horiz-adv-x="300" d="M250 150L232.375 167.625L162.5 97.875V250H137.5V97.875L67.75 167.75L50 150L150 50L250 150z" />
    <glyph glyph-name="navigation-arrow_drop_down"
      unicode="&#xF160;"
      horiz-adv-x="300" d="M87.5 175L150 112.5L212.5 175H87.5z" />
    <glyph glyph-name="navigation-arrow_drop_up"
      unicode="&#xF161;"
      horiz-adv-x="300" d="M87.5 125L150 187.5L212.5 125H87.5z" />
    <glyph glyph-name="navigation-arrow_forward"
      unicode="&#xF162;"
      horiz-adv-x="300" d="M150 250L132.375 232.375L202.125 162.5H50V137.5H202.125L132.375 67.625L150 50L250 150L150 250z" />
    <glyph glyph-name="navigation-arrow_left"
      unicode="&#xF163;"
      horiz-adv-x="300" d="M175 212.5L112.5 150L175 87.5V212.5z" />
    <glyph glyph-name="navigation-arrow_right"
      unicode="&#xF164;"
      horiz-adv-x="300" d="M125 87.5L187.5 150L125 212.5V87.5z" />
    <glyph glyph-name="navigation-arrow_up"
      unicode="&#xF165;"
      horiz-adv-x="300" d="M50 150L67.625 132.375L137.5 202.125V50H162.5V202.125L232.25 132.25L250 150L150 250L50 150z" />
    <glyph glyph-name="navigation-chevron_left"
      unicode="&#xF166;"
      horiz-adv-x="300" d="M192.625 207.375L175 225L100 150L175 75L192.625 92.625L135.375 150L192.625 207.375z" />
    <glyph glyph-name="navigation-chevron_right"
      unicode="&#xF167;"
      horiz-adv-x="300" d="M125.00125 225L107.376125 207.375L164.62625 150L107.376125 92.625L125.00125 75L200.00125 150L125.00125 225z" />
    <glyph glyph-name="navigation-double_chevron_left"
      unicode="&#xF168;"
      horiz-adv-x="300" d="M212.5025 225L230.1275 207.375L172.8775 150L230.1275 92.625L212.5025 75L137.5025 150L212.5025 225zM137.5025 225L155.1275 207.375L97.877 150L155.1275 92.625L137.5025 75L62.502 150L137.5025 225z" />
    <glyph glyph-name="navigation-double_chevron_right"
      unicode="&#xF169;"
      horiz-adv-x="300" d="M92.625 225L75 207.375L132.25 150L75 92.625L92.625 75L167.625 150L92.625 225zM167.625 225L150 207.375L207.25 150L150 92.625L167.625 75L242.625 150L167.625 225z" />
    <glyph glyph-name="navigation-expand_less"
      unicode="&#xF16A;"
      horiz-adv-x="300" d="M150 200L75 125L92.625 107.375L150 164.625L207.375 107.375L225 125L150 200z" />
    <glyph glyph-name="navigation-expand_more"
      unicode="&#xF16B;"
      horiz-adv-x="300" d="M207.375 192.625L150 135.375L92.625 192.625L75 175L150 100L225 175L207.375 192.625z" />
    <glyph glyph-name="registry-annual_filing"
      unicode="&#xF16C;"
      horiz-adv-x="300" d="M177.125 237.5L237.5 177.125V62.5H62.5V237.5H177.125zM177.125 262.5H62.5C48.75 262.5 37.5 251.25 37.5 237.5V62.5C37.5 48.75 48.75 37.5 62.5 37.5H237.5C251.2500000000001 37.5 262.5 48.75 262.5 62.5V177.125C262.5 183.75 259.875 190.125 255.125 194.75L194.75 255.125C190.125 259.875 183.75 262.5 177.125 262.5zM87.5 112.5H212.5V87.5H87.5V112.5zM87.5 162.5H212.5V137.5H87.5V162.5zM87.5 212.5H175V187.5H87.5V212.5z" />
    <glyph glyph-name="registry-charge_registration"
      unicode="&#xF16D;"
      horiz-adv-x="300" d="M147.50125 163.75C119.125875 171.125 110.000875 178.75 110.000875 190.625C110.000875 204.25 122.625875 213.75 143.75125 213.75C166.00125 213.75 174.25125 203.125 175.00125 187.5H202.62625C201.75125 209 188.62625 228.75 162.50125 235.125V262.5H125.00125V235.5C100.750875 230.25 81.250875 214.5 81.250875 190.375C81.250875 161.5 105.125875 147.125 140.00125 138.75C171.25125 131.25 177.50125 120.25 177.50125 108.625C177.50125 100 171.37625 86.25 143.75125 86.25C118.000875 86.25 107.875875 97.75 106.500875 112.5H79.000875C80.500875 85.125 101.000875 69.75 125.00125 64.625V37.5H162.50125V64.375C186.87625 69 206.25125 83.125 206.25125 108.75C206.25125 144.25 175.87625 156.375 147.50125 163.75z" />
    <glyph glyph-name="registry-close_a_local_company"
      unicode="&#xF16E;"
      horiz-adv-x="300" d="M150 275C80.875 275 25 219.125 25 150C25 80.875 80.875 25 150 25C219.125 25 275 80.875 275 150C275 219.125 219.125 275 150 275zM150 50C94.875 50 50 94.875 50 150C50 205.125 94.875 250 150 250C205.125 250 250 205.125 250 150C250 94.875 205.125 50 150 50zM194.875 212.5L150 167.625L105.125 212.5L87.5 194.875L132.375 150L87.5 105.125L105.125 87.5L150 132.375L194.875 87.5L212.5 105.125L167.625 150L212.5 194.875L194.875 212.5z" />
    <glyph glyph-name="registry-make_changes"
      unicode="&#xF16F;"
      horiz-adv-x="300" d="M37.5 84.375V37.5H84.375L222.625 175.75L175.75 222.625L37.5 84.375zM74 62.5H62.5V74L175.75 187.25L187.25 175.75L74 62.5zM258.875 229.625L229.625 258.875C227.1250000000001 261.375 224 262.5 220.75 262.5C217.5 262.5 214.375 261.25 212 258.875L189.125 236L236 189.125L258.875 212C263.75 216.875 263.75 224.75 258.875 229.625z" />
    <glyph glyph-name="registry-start_company"
      unicode="&#xF170;"
      horiz-adv-x="300" d="M250 287.5V250H287.5V225H250V187.5H225V225H187.5V250H225V287.5H250zM150 137.5C136.25 137.5 125 148.75 125 162.5C125 176.25 136.25 187.5 150 187.5C163.75 187.5 175 176.25 175 162.5C175 148.75 163.75 137.5 150 137.5zM162.5 261.75V236.5C158.365 237.153375 154.18625 237.48775 150 237.5C108.125 237.5 75 205.375 75 160C75 130.75 99.375 92 150 45.75C200.625 92 225 130.625 225 160V162.5H250V160C250 118.5 216.625 69.375 150 12.5C83.375 69.375 50 118.5 50 160C50 222.25 97.5 262.5 150 262.5C154.25 262.5 158.375 262.25 162.5 261.75z" />
    <glyph glyph-name="registry-update_share_info"
      unicode="&#xF171;"
      horiz-adv-x="300" d="M150 275C81.25 275 25 218.75 25 150C25 81.25 81.25 25 150 25C218.75 25 275 81.25 275 150C275 218.75 218.75 275 150 275zM162.5 249.125C207.625 243.5 243.5 207.5 249.125 162.5H162.5V249.125zM50 150C50 200.75 88.375 243 137.5 249.125V50.75C88.375 57 50 99.25 50 150zM162.5 50.875V137.5H249.125C243.5 92.375 207.625 56.5 162.5 50.875z" />
    <glyph glyph-name="state-error"
      unicode="&#xF172;"
      horiz-adv-x="300" d="M150 275C81 275 25 219 25 150C25 81 81 25 150 25C219 25 275 81 275 150C275 219 219 275 150 275zM162.5 87.5H137.5V112.5H162.5V87.5zM162.5 137.5H137.5V212.5H162.5V137.5z" />
    <glyph glyph-name="state-informative"
      unicode="&#xF173;"
      horiz-adv-x="300" d="M150 25C219 25 275 81 275 150C275 219 219 275 150 275C81 275 25 219 25 150C25 81 81 25 150 25zM137.5 212.5L162.5 212.5L162.5 187.5L137.5 187.5L137.5 212.5zM137.5 162.5L162.5 162.5L162.5 87.5L137.5 87.5L137.5 162.5z" />
    <glyph glyph-name="state-success"
      unicode="&#xF174;"
      horiz-adv-x="300" d="M25 150C25 219 81 275 150 275C219 275 275 219 275 150C275 81 219 25 150 25C81 25 25 81 25 150zM207.375 205.25L125 122.875L92.625 155.125L75 137.5L125 87.5L225 187.5L207.375 205.25z" />
    <glyph glyph-name="state-warning"
      unicode="&#xF175;"
      horiz-adv-x="300" d="M12.5 37.5H287.5L150 275L12.5 37.5zM162.5 75H137.5V100H162.5V75zM162.5 125H137.5V175H162.5V125z" />
    <glyph glyph-name="toggle-checkbox_checked_fill"
      unicode="&#xF176;"
      horiz-adv-x="300" d="M237.5 262.5H62.5C48.625 262.5 37.5 251.25 37.5 237.5V62.5C37.5 48.75 48.625 37.5 62.5 37.5H237.5C251.375 37.5 262.5 48.75 262.5 62.5V237.5C262.5 251.25 251.375 262.5 237.5 262.5zM125 87.5L62.5 150L80.125 167.625L125 122.875L219.875 217.75L237.5 200L125 87.5z" />
    <glyph glyph-name="toggle-checkbox_checked_outline"
      unicode="&#xF177;"
      horiz-adv-x="300" d="M237.5 262.5H62.5C48.75 262.5 37.5 251.25 37.5 237.5V62.5C37.5 48.75 48.75 37.5 62.5 37.5H237.5C251.2500000000001 37.5 262.5 48.75 262.5 62.5V237.5C262.5 251.25 251.2500000000001 262.5 237.5 262.5zM237.5 62.5H62.5V237.5H237.5V62.5zM224.875 187.5L207.25 205.25L124.875 122.875L92.625 155L74.875 137.375L124.875 87.5L224.875 187.5z" />
    <glyph glyph-name="toggle-checkbox_indeterminate_fill"
      unicode="&#xF178;"
      horiz-adv-x="300" d="M237.5 262.5H62.5C48.75 262.5 37.5 251.25 37.5 237.5V62.5C37.5 48.75 48.75 37.5 62.5 37.5H237.5C251.2500000000001 37.5 262.5 48.75 262.5 62.5V237.5C262.5 251.25 251.2500000000001 262.5 237.5 262.5zM212.5 137.5H87.5V162.5H212.5V137.5zM0 300H300V0H0V300z" />
    <glyph glyph-name="toggle-checkbox_indeterminate_outline"
      unicode="&#xF179;"
      horiz-adv-x="300" d="M237.5 262.5H62.5C48.75 262.5 37.5 251.25 37.5 237.5V62.5C37.5 48.75 48.75 37.5 62.5 37.5H237.5C251.2500000000001 37.5 262.5 48.75 262.5 62.5V237.5C262.5 251.25 251.2500000000001 262.5 237.5 262.5zM237.5 62.5H62.5V237.5H237.5V62.5zM87.5 162.5H212.5V137.5H87.5V162.5z" />
    <glyph glyph-name="toggle-checkbox_unchecked"
      unicode="&#xF17A;"
      horiz-adv-x="300" d="M237.5 237.5V62.5H62.5V237.5H237.5zM237.5 262.5H62.5C48.75 262.5 37.5 251.25 37.5 237.5V62.5C37.5 48.75 48.75 37.5 62.5 37.5H237.5C251.2500000000001 37.5 262.5 48.75 262.5 62.5V237.5C262.5 251.25 251.2500000000001 262.5 237.5 262.5z" />
    <glyph glyph-name="toggle-radiobutton_selected"
      unicode="&#xF17B;"
      horiz-adv-x="300" d="M150 275C81 275 25 219 25 150C25 81 81 25 150 25C219 25 275 81 275 150C275 219 219 275 150 275zM150 50C94.75 50 50 94.75 50 150C50 205.25 94.75 250 150 250C205.25 250 250 205.25 250 150C250 94.75 205.25 50 150 50zM150 87.5C184.5175 87.5 212.5 115.4825 212.5 150C212.5 184.51775 184.5175 212.5 150 212.5C115.48225 212.5 87.5 184.51775 87.5 150C87.5 115.4825 115.48225 87.5 150 87.5z" />
    <glyph glyph-name="toggle-radiobutton_unselected"
      unicode="&#xF17C;"
      horiz-adv-x="300" d="M150 275C81 275 25 219 25 150C25 81 81 25 150 25C219 25 275 81 275 150C275 219 219 275 150 275zM150 50C94.75 50 50 94.75 50 150C50 205.25 94.75 250 150 250C205.25 250 250 205.25 250 150C250 94.75 205.25 50 150 50z" />
  </font>
</defs>
</svg>
